<svg width="224" height="30" viewBox="0 0 224 30" fill="none" xmlns="http://www.w3.org/2000/svg">
<path id="GROWTH - Logo" fill-rule="evenodd" clip-rule="evenodd" d="M31.572 27.0995C28.836 27.9395 25.656 28.3595 22.032 28.3595H19.872C15.792 28.3595 12.264 27.8495 9.288 26.8295C6.312 25.8095 4.02 24.2675 2.412 22.2035C0.804 20.1395 0 17.5355 0 14.3915C0 11.2715 0.804 8.69151 2.412 6.65152C4.02 4.61152 6.312 3.09352 9.288 2.09752C12.264 1.10152 15.78 0.603516 19.836 0.603516H25.272C28.872 0.603516 32.07 0.993516 34.866 1.77352C37.662 2.55352 39.93 3.68752 41.67 5.17552C43.41 6.66352 44.472 8.46352 44.856 10.5755L36.36 11.7995C35.976 10.5515 35.238 9.50752 34.146 8.66752C33.054 7.82752 31.674 7.19152 30.006 6.75952C28.338 6.32752 26.448 6.11152 24.336 6.11152H20.844C18.348 6.11152 16.182 6.39352 14.346 6.95752C12.51 7.52152 11.094 8.41552 10.098 9.63952C9.102 10.8635 8.604 12.4475 8.604 14.3915C8.604 16.3595 9.102 17.9675 10.098 19.2155C11.094 20.4635 12.51 21.3875 14.346 21.9875C16.182 22.5875 18.348 22.8875 20.844 22.8875H24.336C26.52 22.8875 28.464 22.6415 30.168 22.1495C31.872 21.6575 33.252 20.9255 34.308 19.9535C34.8947 19.4135 35.3702 18.7939 35.7347 18.0946L35.82 17.9155V17.6315H16.884V13.5635H45.072V27.9995H39.816L37.682 23.8455L37.3245 24.1495C35.7695 25.4162 33.852 26.3995 31.572 27.0995ZM51.0176 28V1H56.5616H70.3136C73.4576 1 76.0556 1.252 78.1076 1.756C80.1596 2.26 81.7736 2.992 82.9496 3.952C84.1256 4.912 84.9656 6.07 85.4696 7.426C85.9736 8.782 86.2256 10.312 86.2256 12.016C86.2256 13.624 85.9796 15.07 85.4876 16.354C84.9956 17.638 84.1556 18.736 82.9676 19.648C82.0436 20.3573 80.8519 20.9387 79.3924 21.392L79.5058 21.4545C79.8961 21.695 80.282 21.9808 80.6636 22.312C81.2996 22.864 81.9656 23.524 82.6616 24.292L85.8656 28H77.2616L72.6765 22.408L71.9743 22.4322C71.4388 22.4481 70.8852 22.456 70.3136 22.456H59.0444L59.0456 28H51.0176ZM59.044 6.7979L71.1051 6.7959C72.5691 6.7959 73.7931 6.9039 74.7771 7.1199C75.7611 7.3359 76.5591 7.6659 77.1711 8.1099C77.7831 8.5539 78.2151 9.0939 78.4671 9.7299C78.7191 10.3659 78.8451 11.1039 78.8451 11.9439C78.8451 12.8319 78.7191 13.5999 78.4671 14.2479C78.2151 14.8959 77.7831 15.4299 77.1711 15.8499C76.5591 16.2699 75.7611 16.5879 74.7771 16.8039C73.7931 17.0199 72.5691 17.1279 71.1051 17.1279H59.044V6.7979ZM120.076 26.8655C117.532 27.8615 114.52 28.3595 111.04 28.3595H107.548C104.068 28.3595 101.056 27.8615 98.5116 26.8655C95.9676 25.8695 94.0056 24.3395 92.6256 22.2755C91.2456 20.2115 90.5556 17.5835 90.5556 14.3915C90.5556 11.2475 91.2456 8.66152 92.6256 6.63352C94.0056 4.60552 95.9676 3.09952 98.5116 2.11552C101.056 1.13152 104.068 0.639516 107.548 0.639516H111.04C114.52 0.639516 117.532 1.13152 120.076 2.11552C122.62 3.09952 124.588 4.60552 125.98 6.63352C127.372 8.66152 128.068 11.2475 128.068 14.3915C128.068 17.5835 127.372 20.2115 125.98 22.2755C124.588 24.3395 122.62 25.8695 120.076 26.8655ZM110.32 22.9591H108.304C106.264 22.9591 104.506 22.6711 103.03 22.0951C101.554 21.5191 100.42 20.6011 99.6276 19.3411C98.8356 18.0811 98.4396 16.4431 98.4396 14.4271C98.4396 12.4111 98.8356 10.7911 99.6276 9.56706C100.42 8.34306 101.554 7.44906 103.03 6.88506C104.506 6.32106 106.264 6.03906 108.304 6.03906H110.32C112.36 6.03906 114.118 6.32106 115.594 6.88506C117.07 7.44906 118.204 8.34306 118.996 9.56706C119.788 10.7911 120.184 12.4111 120.184 14.4271C120.184 16.4431 119.788 18.0811 118.996 19.3411C118.204 20.6011 117.07 21.5191 115.594 22.0951C114.118 22.6711 112.36 22.9591 110.32 22.9591ZM148.722 10.808L144.621 28H137.349L130.833 1H138.213L142.788 20.292L147.069 1H152.037L156.602 20.46L161.001 1H167.589L161.217 28H153.297L148.722 10.808ZM169.449 1V6.58L179.24 6.582L179.241 28H186.441L186.44 6.582L196.233 6.58V1H179.241H169.449ZM206.168 17.272L206.17 28H199.222V1H206.17L206.168 11.946H215.816L215.818 1H222.766V28H215.818L215.816 17.272H206.168Z" fill="#212024"/>
</svg>
