<svg width="24" height="24" viewBox="0 0 24 24" fill="none" xmlns="http://www.w3.org/2000/svg">
<path id="icon-star" fill-rule="evenodd" clip-rule="evenodd" d="M15.0257 7.29947C15.2414 7.96583 15.8605 8.41591 16.5577 8.41591H22.8649C23.962 8.41591 24.419 9.82344 23.5306 10.4699L18.4277 14.1875C17.8634 14.599 17.6279 15.3285 17.8436 15.9937L19.7917 22.0084C20.131 23.0547 18.9372 23.9245 18.05 23.278L12.947 19.5604C12.3827 19.1489 11.6179 19.1489 11.0536 19.5604L5.9507 23.278C5.06348 23.9245 3.86848 23.0547 4.20774 22.0084L6.15705 15.9937C6.37274 15.3285 6.13607 14.599 5.57179 14.1875L0.468841 10.4699C-0.418376 9.82344 0.037474 8.41591 1.13454 8.41591H7.44183C8.14017 8.41591 8.75808 7.96583 8.97376 7.29947L10.9231 1.28472C11.2623 0.238426 12.7383 0.238426 13.0776 1.28472L15.0257 7.29947Z" fill="#6F4D08"/>
</svg>
