<svg width="24" height="24" viewBox="0 0 24 24" fill="none" xmlns="http://www.w3.org/2000/svg">
<path fill-rule="evenodd" clip-rule="evenodd" d="M12.6706 11.0198C11.7579 11.0198 11.017 11.7598 11.017 12.6727V21.1201C11.017 21.6491 10.5551 22.0431 10.0284 21.9962C4.30563 21.4862 -0.158583 16.6012 0.00431994 10.7073C0.163876 4.9574 4.95612 0.163939 10.7046 0.00434278C16.6215 -0.159717 21.5231 4.34468 21.9973 10.1035C22.0375 10.6024 21.618 11.0198 21.1181 11.0198H12.6706ZM14.118 13C13.5003 13 13 13.5003 13 14.117V22.9951C13 23.5962 13.526 24.0551 14.1248 23.9946C19.33 23.4697 23.4687 19.3306 23.9947 14.1238C24.0551 13.5261 23.5951 13 22.9941 13H14.118Z" fill="#6F4D08"/>
</svg>
