<svg width="24" height="20" viewBox="0 0 24 20" fill="none" xmlns="http://www.w3.org/2000/svg">
<path id="icon-heart" fill-rule="evenodd" clip-rule="evenodd" d="M13.3449 19.492C12.5931 20.1725 11.4472 20.1683 10.6976 19.4856C7.14429 16.2425 4.38239 13.4606 1.80897 10.4741C-0.847978 7.83174 -0.578106 3.38088 2.61859 1.10592C4.45307 -0.199833 6.93653 -0.343615 8.95521 0.659666C10.1193 1.23799 10.9353 2.06554 11.4804 3.00811C11.7192 3.42242 12.32 3.41709 12.5599 3.00279C13.1436 1.99418 14.0389 1.11764 15.34 0.537185C17.0278 -0.214744 19.0197 -0.180662 20.6646 0.660731C24.5895 2.66729 25.004 7.77956 22.1532 10.6147C19.1643 14.0165 16.1689 16.9348 13.3449 19.492Z" fill="#6F4D08"/>
</svg>
